<mxfile host="app.diagrams.net" modified="2022-07-06T07:56:26.892Z" agent="5.0 (Windows NT 10.0; Win64; x64) AppleWebKit/537.36 (KHTML, like Gecko) Chrome/72.0.3626.109 Safari/537.36" etag="X_2ngPMN2AjSVddFyOlx" version="20.0.4" type="github">
  <diagram id="JCl5eZCCEW6x7IEp9Bsm" name="Page-1">
    <mxGraphModel dx="1043" dy="716" grid="1" gridSize="10" guides="1" tooltips="1" connect="1" arrows="1" fold="1" page="1" pageScale="1" pageWidth="827" pageHeight="1169" math="0" shadow="0">
      <root>
        <mxCell id="0" />
        <mxCell id="1" parent="0" />
        <mxCell id="xFFywQFFWzlZjc-uIubM-9" value="" style="edgeStyle=orthogonalEdgeStyle;rounded=0;orthogonalLoop=1;jettySize=auto;html=1;fontSize=14;" edge="1" parent="1" source="xFFywQFFWzlZjc-uIubM-1" target="xFFywQFFWzlZjc-uIubM-3">
          <mxGeometry relative="1" as="geometry" />
        </mxCell>
        <mxCell id="xFFywQFFWzlZjc-uIubM-1" value="搜索" style="rounded=1;whiteSpace=wrap;html=1;fillColor=#dae8fc;strokeColor=#6c8ebf;fontSize=14;" vertex="1" parent="1">
          <mxGeometry x="190" y="50" width="120" height="60" as="geometry" />
        </mxCell>
        <mxCell id="xFFywQFFWzlZjc-uIubM-10" value="是" style="edgeStyle=orthogonalEdgeStyle;rounded=0;orthogonalLoop=1;jettySize=auto;html=1;fontSize=14;" edge="1" parent="1" source="xFFywQFFWzlZjc-uIubM-3" target="xFFywQFFWzlZjc-uIubM-4">
          <mxGeometry relative="1" as="geometry" />
        </mxCell>
        <mxCell id="xFFywQFFWzlZjc-uIubM-11" value="否" style="edgeStyle=orthogonalEdgeStyle;rounded=0;orthogonalLoop=1;jettySize=auto;html=1;exitX=1;exitY=0.5;exitDx=0;exitDy=0;fontSize=14;" edge="1" parent="1" source="xFFywQFFWzlZjc-uIubM-3" target="xFFywQFFWzlZjc-uIubM-5">
          <mxGeometry relative="1" as="geometry">
            <mxPoint x="530" y="80" as="sourcePoint" />
          </mxGeometry>
        </mxCell>
        <mxCell id="xFFywQFFWzlZjc-uIubM-3" value="数据库是否存在" style="rhombus;whiteSpace=wrap;html=1;fillColor=#dae8fc;strokeColor=#6c8ebf;fontSize=14;" vertex="1" parent="1">
          <mxGeometry x="360" y="40" width="120" height="80" as="geometry" />
        </mxCell>
        <mxCell id="xFFywQFFWzlZjc-uIubM-12" value="" style="edgeStyle=orthogonalEdgeStyle;rounded=0;orthogonalLoop=1;jettySize=auto;html=1;fontSize=14;" edge="1" parent="1" source="xFFywQFFWzlZjc-uIubM-4" target="xFFywQFFWzlZjc-uIubM-6">
          <mxGeometry relative="1" as="geometry" />
        </mxCell>
        <mxCell id="xFFywQFFWzlZjc-uIubM-4" value="本地搜索" style="rounded=1;whiteSpace=wrap;html=1;fillColor=#dae8fc;strokeColor=#6c8ebf;fontSize=14;" vertex="1" parent="1">
          <mxGeometry x="360" y="210" width="120" height="60" as="geometry" />
        </mxCell>
        <mxCell id="xFFywQFFWzlZjc-uIubM-15" style="edgeStyle=orthogonalEdgeStyle;rounded=0;orthogonalLoop=1;jettySize=auto;html=1;exitX=0.5;exitY=1;exitDx=0;exitDy=0;entryX=0.5;entryY=0;entryDx=0;entryDy=0;fontSize=14;" edge="1" parent="1" source="xFFywQFFWzlZjc-uIubM-5" target="xFFywQFFWzlZjc-uIubM-13">
          <mxGeometry relative="1" as="geometry" />
        </mxCell>
        <mxCell id="xFFywQFFWzlZjc-uIubM-5" value="利用爬虫搜索" style="rounded=1;whiteSpace=wrap;html=1;fillColor=#dae8fc;strokeColor=#6c8ebf;fontSize=14;" vertex="1" parent="1">
          <mxGeometry x="570" y="50" width="120" height="60" as="geometry" />
        </mxCell>
        <mxCell id="xFFywQFFWzlZjc-uIubM-17" value="" style="edgeStyle=orthogonalEdgeStyle;rounded=0;orthogonalLoop=1;jettySize=auto;html=1;fontSize=14;" edge="1" parent="1" source="xFFywQFFWzlZjc-uIubM-6" target="xFFywQFFWzlZjc-uIubM-16">
          <mxGeometry relative="1" as="geometry" />
        </mxCell>
        <mxCell id="xFFywQFFWzlZjc-uIubM-6" value="记录日志" style="rounded=1;whiteSpace=wrap;html=1;fillColor=#dae8fc;strokeColor=#6c8ebf;fontSize=14;" vertex="1" parent="1">
          <mxGeometry x="360" y="330" width="120" height="60" as="geometry" />
        </mxCell>
        <mxCell id="xFFywQFFWzlZjc-uIubM-8" value="" style="edgeStyle=orthogonalEdgeStyle;rounded=0;orthogonalLoop=1;jettySize=auto;html=1;fontSize=14;" edge="1" parent="1" source="xFFywQFFWzlZjc-uIubM-7" target="xFFywQFFWzlZjc-uIubM-1">
          <mxGeometry relative="1" as="geometry" />
        </mxCell>
        <mxCell id="xFFywQFFWzlZjc-uIubM-7" value="" style="ellipse;whiteSpace=wrap;html=1;aspect=fixed;fillColor=#d5e8d4;strokeColor=#82b366;fontSize=14;" vertex="1" parent="1">
          <mxGeometry x="70" y="40" width="80" height="80" as="geometry" />
        </mxCell>
        <mxCell id="xFFywQFFWzlZjc-uIubM-14" style="edgeStyle=orthogonalEdgeStyle;rounded=0;orthogonalLoop=1;jettySize=auto;html=1;exitX=0.5;exitY=1;exitDx=0;exitDy=0;fontSize=14;" edge="1" parent="1" source="xFFywQFFWzlZjc-uIubM-13">
          <mxGeometry relative="1" as="geometry">
            <mxPoint x="420" y="330" as="targetPoint" />
          </mxGeometry>
        </mxCell>
        <mxCell id="xFFywQFFWzlZjc-uIubM-13" value="存储到本地" style="rounded=1;whiteSpace=wrap;html=1;fillColor=#dae8fc;strokeColor=#6c8ebf;fontSize=14;" vertex="1" parent="1">
          <mxGeometry x="570" y="210" width="120" height="60" as="geometry" />
        </mxCell>
        <mxCell id="xFFywQFFWzlZjc-uIubM-16" value="" style="ellipse;whiteSpace=wrap;html=1;aspect=fixed;fillColor=#f8cecc;strokeColor=#b85450;fontSize=14;" vertex="1" parent="1">
          <mxGeometry x="380" y="440" width="80" height="80" as="geometry" />
        </mxCell>
        <mxCell id="xFFywQFFWzlZjc-uIubM-26" style="edgeStyle=orthogonalEdgeStyle;rounded=0;orthogonalLoop=1;jettySize=auto;html=1;exitX=1;exitY=0.5;exitDx=0;exitDy=0;entryX=0;entryY=0.5;entryDx=0;entryDy=0;fontSize=14;" edge="1" parent="1" source="xFFywQFFWzlZjc-uIubM-18" target="xFFywQFFWzlZjc-uIubM-20">
          <mxGeometry relative="1" as="geometry" />
        </mxCell>
        <mxCell id="xFFywQFFWzlZjc-uIubM-27" style="edgeStyle=orthogonalEdgeStyle;rounded=0;orthogonalLoop=1;jettySize=auto;html=1;exitX=1;exitY=0.5;exitDx=0;exitDy=0;entryX=0;entryY=0.5;entryDx=0;entryDy=0;fontSize=14;" edge="1" parent="1" source="xFFywQFFWzlZjc-uIubM-18" target="xFFywQFFWzlZjc-uIubM-21">
          <mxGeometry relative="1" as="geometry" />
        </mxCell>
        <mxCell id="xFFywQFFWzlZjc-uIubM-28" style="edgeStyle=orthogonalEdgeStyle;rounded=0;orthogonalLoop=1;jettySize=auto;html=1;exitX=1;exitY=0.5;exitDx=0;exitDy=0;entryX=0;entryY=0.5;entryDx=0;entryDy=0;fontSize=14;" edge="1" parent="1" source="xFFywQFFWzlZjc-uIubM-18" target="xFFywQFFWzlZjc-uIubM-25">
          <mxGeometry relative="1" as="geometry" />
        </mxCell>
        <mxCell id="xFFywQFFWzlZjc-uIubM-37" style="edgeStyle=orthogonalEdgeStyle;rounded=0;orthogonalLoop=1;jettySize=auto;html=1;exitX=1;exitY=0.5;exitDx=0;exitDy=0;entryX=0;entryY=0.5;entryDx=0;entryDy=0;fontSize=14;" edge="1" parent="1" source="xFFywQFFWzlZjc-uIubM-18" target="xFFywQFFWzlZjc-uIubM-36">
          <mxGeometry relative="1" as="geometry" />
        </mxCell>
        <mxCell id="xFFywQFFWzlZjc-uIubM-18" value="垃圾分类大数据" style="rounded=1;whiteSpace=wrap;html=1;fillColor=#dae8fc;strokeColor=#6c8ebf;fontSize=14;" vertex="1" parent="1">
          <mxGeometry x="140" y="740" width="110" height="40" as="geometry" />
        </mxCell>
        <mxCell id="xFFywQFFWzlZjc-uIubM-29" style="edgeStyle=orthogonalEdgeStyle;rounded=0;orthogonalLoop=1;jettySize=auto;html=1;exitX=1;exitY=0.5;exitDx=0;exitDy=0;entryX=0;entryY=0.5;entryDx=0;entryDy=0;fontSize=14;" edge="1" parent="1" source="xFFywQFFWzlZjc-uIubM-20" target="xFFywQFFWzlZjc-uIubM-22">
          <mxGeometry relative="1" as="geometry" />
        </mxCell>
        <mxCell id="xFFywQFFWzlZjc-uIubM-30" style="edgeStyle=orthogonalEdgeStyle;rounded=0;orthogonalLoop=1;jettySize=auto;html=1;exitX=1;exitY=0.5;exitDx=0;exitDy=0;entryX=0;entryY=0.5;entryDx=0;entryDy=0;fontSize=14;" edge="1" parent="1" source="xFFywQFFWzlZjc-uIubM-20" target="xFFywQFFWzlZjc-uIubM-23">
          <mxGeometry relative="1" as="geometry" />
        </mxCell>
        <mxCell id="xFFywQFFWzlZjc-uIubM-31" style="edgeStyle=orthogonalEdgeStyle;rounded=0;orthogonalLoop=1;jettySize=auto;html=1;exitX=1;exitY=0.5;exitDx=0;exitDy=0;entryX=0;entryY=0.5;entryDx=0;entryDy=0;fontSize=14;" edge="1" parent="1" source="xFFywQFFWzlZjc-uIubM-20" target="xFFywQFFWzlZjc-uIubM-24">
          <mxGeometry relative="1" as="geometry" />
        </mxCell>
        <mxCell id="xFFywQFFWzlZjc-uIubM-20" value="智能搜索" style="rounded=1;whiteSpace=wrap;html=1;fillColor=#fff2cc;strokeColor=#d6b656;fontSize=14;" vertex="1" parent="1">
          <mxGeometry x="310" y="680" width="110" height="40" as="geometry" />
        </mxCell>
        <mxCell id="xFFywQFFWzlZjc-uIubM-34" style="edgeStyle=orthogonalEdgeStyle;rounded=0;orthogonalLoop=1;jettySize=auto;html=1;exitX=1;exitY=0.5;exitDx=0;exitDy=0;entryX=0;entryY=0.5;entryDx=0;entryDy=0;fontSize=14;" edge="1" parent="1" source="xFFywQFFWzlZjc-uIubM-21" target="xFFywQFFWzlZjc-uIubM-32">
          <mxGeometry relative="1" as="geometry" />
        </mxCell>
        <mxCell id="xFFywQFFWzlZjc-uIubM-35" style="edgeStyle=orthogonalEdgeStyle;rounded=0;orthogonalLoop=1;jettySize=auto;html=1;exitX=1;exitY=0.5;exitDx=0;exitDy=0;entryX=0;entryY=0.5;entryDx=0;entryDy=0;fontSize=14;" edge="1" parent="1" source="xFFywQFFWzlZjc-uIubM-21" target="xFFywQFFWzlZjc-uIubM-33">
          <mxGeometry relative="1" as="geometry" />
        </mxCell>
        <mxCell id="xFFywQFFWzlZjc-uIubM-39" style="edgeStyle=orthogonalEdgeStyle;rounded=0;orthogonalLoop=1;jettySize=auto;html=1;exitX=1;exitY=0.5;exitDx=0;exitDy=0;entryX=0;entryY=0.5;entryDx=0;entryDy=0;fontSize=14;" edge="1" parent="1" source="xFFywQFFWzlZjc-uIubM-21" target="xFFywQFFWzlZjc-uIubM-38">
          <mxGeometry relative="1" as="geometry" />
        </mxCell>
        <mxCell id="xFFywQFFWzlZjc-uIubM-21" value="可视化" style="rounded=1;whiteSpace=wrap;html=1;fillColor=#dae8fc;strokeColor=#6c8ebf;fontSize=14;" vertex="1" parent="1">
          <mxGeometry x="310" y="800" width="110" height="40" as="geometry" />
        </mxCell>
        <mxCell id="xFFywQFFWzlZjc-uIubM-22" value="爬虫搜索" style="rounded=1;whiteSpace=wrap;html=1;fillColor=#fff2cc;strokeColor=#d6b656;fontSize=14;" vertex="1" parent="1">
          <mxGeometry x="460" y="590" width="110" height="40" as="geometry" />
        </mxCell>
        <mxCell id="xFFywQFFWzlZjc-uIubM-23" value="本地查询" style="rounded=1;whiteSpace=wrap;html=1;fillColor=#dae8fc;strokeColor=#6c8ebf;fontSize=14;" vertex="1" parent="1">
          <mxGeometry x="460" y="650" width="110" height="40" as="geometry" />
        </mxCell>
        <mxCell id="xFFywQFFWzlZjc-uIubM-24" value="查询记录" style="rounded=1;whiteSpace=wrap;html=1;fillColor=#dae8fc;strokeColor=#6c8ebf;fontSize=14;" vertex="1" parent="1">
          <mxGeometry x="460" y="710" width="110" height="40" as="geometry" />
        </mxCell>
        <mxCell id="xFFywQFFWzlZjc-uIubM-25" value="登录与注册" style="rounded=1;whiteSpace=wrap;html=1;fillColor=#dae8fc;strokeColor=#6c8ebf;fontSize=14;" vertex="1" parent="1">
          <mxGeometry x="310" y="880" width="110" height="40" as="geometry" />
        </mxCell>
        <mxCell id="xFFywQFFWzlZjc-uIubM-32" value="分类分析" style="rounded=1;whiteSpace=wrap;html=1;fillColor=#dae8fc;strokeColor=#6c8ebf;fontSize=14;" vertex="1" parent="1">
          <mxGeometry x="460" y="770" width="110" height="40" as="geometry" />
        </mxCell>
        <mxCell id="xFFywQFFWzlZjc-uIubM-33" value="搜索趋势" style="rounded=1;whiteSpace=wrap;html=1;fillColor=#dae8fc;strokeColor=#6c8ebf;fontSize=14;" vertex="1" parent="1">
          <mxGeometry x="460" y="820" width="110" height="40" as="geometry" />
        </mxCell>
        <mxCell id="xFFywQFFWzlZjc-uIubM-36" value="统计面板" style="rounded=1;whiteSpace=wrap;html=1;fillColor=#dae8fc;strokeColor=#6c8ebf;fontSize=14;" vertex="1" parent="1">
          <mxGeometry x="310" y="610" width="110" height="40" as="geometry" />
        </mxCell>
        <mxCell id="xFFywQFFWzlZjc-uIubM-38" value="最热搜索" style="rounded=1;whiteSpace=wrap;html=1;fillColor=#dae8fc;strokeColor=#6c8ebf;fontSize=14;" vertex="1" parent="1">
          <mxGeometry x="460" y="880" width="110" height="40" as="geometry" />
        </mxCell>
      </root>
    </mxGraphModel>
  </diagram>
</mxfile>
